#!OML:ASF E:\Style4\Style4.ASF
:FULLY-SPECIFIED
:DEGREES
1998
root -0.392608 16.7084 -0.875035 3.002 14.2961 4.38935
lowerback 19.65 6.71283 1.76623
upperback 12.0909 9.1577 -2.1347
thorax 2.89841 4.89681 -4.71843
lowerneck 6.76957 5.40977 1.51955
upperneck 1.13034 7.3277 2.23639
head -0.795767 3.62499 0.241611
rclavicle 1.27222e-014 9.54166e-015
rhumerus 17.3972 13.7261 -82.6989
rradius 130.014
rwrist 19.4087
rhand 31.1846 -11.5573
rfingers 7.12502
rthumb 54.7687 -29.862
lclavicle 1.27222e-014 9.54166e-015
lhumerus 26.0177 -24.7489 82.915
lradius 131.226
lwrist -14.9034
lhand 26.9247 42.6672
lfingers 7.12502
lthumb 50.9221 63.392
rfemur -28.5174 -15.9246 16.2405
rtibia 58.3815
rfoot -28.4642 -22.7651
rtoes -12.6108
lfemur -30.5543 -1.31815 -22.1874
ltibia 53.0206
lfoot -23.3946 2.6331
ltoes -16.7109
1999
root -0.401305 16.7055 -0.873907 2.99237 14.5292 4.17164
lowerback 19.7027 6.73497 2.04995
upperback 12.0439 9.23146 -2.09455
thorax 2.86739 4.94813 -4.84981
lowerneck 6.76288 5.30674 1.60629
upperneck 1.14316 7.19782 2.25045
head -0.787577 3.5609 0.23589
rclavicle 2.8625e-014 -8.74653e-015
rhumerus 17.1821 13.6151 -82.818
rradius 130.022
rwrist 19.4236
rhand 31.2515 -11.561
rfingers 7.12502
rthumb 54.8285 -29.8231
lclavicle 2.8625e-014 -8.74653e-015
lhumerus 26.0251 -24.9268 82.8725
lradius 131.247
lwrist -14.9415
lhand 26.7953 42.6386
lfingers 7.12502
lthumb 50.8042 63.4286
rfemur -28.5315 -16.0472 16.5327
rtibia 58.3869
rfoot -28.4925 -22.8708
rtoes -12.5604
lfemur -30.6951 -1.43747 -21.9139
ltibia 53.1126
lfoot -23.3478 2.5647
ltoes -16.7807
2000
root -0.410803 16.7028 -0.871572 2.99154 14.7332 4.04116
lowerback 19.728 6.72669 2.18499
upperback 12.0117 9.24248 -2.05043
thorax 2.83419 4.95852 -4.88353
lowerneck 6.75708 5.26055 1.49604
upperneck 1.17959 7.12879 2.3352
head -0.782574 3.52572 0.281714
rclavicle -5.1684e-015 -1.74931e-014
rhumerus 17.0229 13.6558 -82.8585
rradius 130.101
rwrist 19.3561
rhand 31.3839 -11.7679
rfingers 7.12502
rthumb 54.9466 -29.9451
lclavicle -5.1684e-015 -1.74931e-014
lhumerus 25.9718 -24.9182 82.8515
lradius 131.235
lwrist -14.9363
lhand 26.5816 42.6464
lfingers 7.12502
lthumb 50.6091 63.5433
rfemur -28.5348 -16.1094 16.7305
rtibia 58.399
rfoot -28.513 -22.9685
rtoes -12.3646
lfemur -30.8061 -1.53898 -21.7282
ltibia 53.1918
lfoot -23.3094 2.47768
ltoes -16.8718
2001
root -0.420109 16.7005 -0.868631 2.95698 14.9276 4.01797
lowerback 19.7065 6.65439 2.05384
upperback 12.0229 9.12829 -1.91965
thorax 2.79769 4.8859 -4.65587
lowerneck 6.89209 5.34104 1.11995
upperneck 1.16772 7.20865 2.30136
head -0.822439 3.56328 0.325182
rclavicle 1.06151e-013 -5.00937e-014
rhumerus 16.9466 14.0177 -82.8274
rradius 130.187
rwrist 19.2412
rhand 31.6702 -11.7658
rfingers 7.12502
rthumb 55.202 -29.7574
lclavicle 1.06151e-013 -5.00937e-014
lhumerus 25.7722 -24.6944 82.945
lradius 131.169
lwrist -14.6841
lhand 26.049 42.8792
lfingers 7.12502
lthumb 50.1225 64.0374
rfemur -28.4732 -16.1856 16.7858
rtibia 58.4185
rfoot -28.5649 -23.0718
rtoes -12.266
lfemur -30.826 -1.66236 -21.6597
ltibia 53.2442
lfoot -23.2763 2.30703
ltoes -16.5512
2002
root -0.429463 16.6971 -0.867388 2.927 15.0973 4.02057
lowerback 19.5767 6.53923 1.70126
upperback 12.0909 8.92434 -1.67592
thorax 2.81376 4.75085 -4.15926
lowerneck 7.20155 5.53545 0.514358
upperneck 0.95777 7.42436 2.18049
head -0.961492 3.66542 0.366258
rclavicle 1.74931e-014 -3.81667e-014
rhumerus 17.0005 14.7327 -82.6657
rradius 130.177
rwrist 19.1717
rhand 31.5871 -11.6101
rfingers 7.12502
rthumb 55.1279 -29.6558
lclavicle 1.74931e-014 -3.81667e-014
lhumerus 25.5042 -24.1632 83.142
lradius 131.196
lwrist -14.6038
lhand 25.6954 43.0542
lfingers 7.12502
lthumb 49.7989 64.3819
rfemur -28.4351 -16.2464 16.8134
rtibia 58.4622
rfoot -28.6136 -23.1821
rtoes -12.351
lfemur -30.8397 -1.74134 -21.6302
ltibia 53.2691
lfoot -23.184 2.27585
ltoes -16.7143
2003
root -0.435679 16.6952 -0.867654 2.9648 15.2648 4.07609
lowerback 19.5105 6.51295 1.55736
upperback 12.1139 8.8696 -1.59325
thorax 2.829 4.71153 -3.97718
lowerneck 7.42815 5.56765 0.259057
upperneck 0.699252 7.45207 2.12468
head -1.0907 3.67525 0.377961
rclavicle 5.36719e-014 -1.66979e-014
rhumerus 17.0039 14.9772 -82.6232
rradius 130.153
rwrist 19.2073
rhand 31.4819 -11.5122
rfingers 7.12502
rthumb 55.034 -29.6262
lclavicle 5.36719e-014 -1.66979e-014
lhumerus 25.3818 -24.0041 83.2042
lradius 131.259
lwrist -14.7068
lhand 25.7689 43.0745
lfingers 7.12502
lthumb 49.8662 64.3672
rfemur -28.4705 -16.3146 16.7839
rtibia 58.5097
rfoot -28.7768 -23.0912
rtoes -11.7901
lfemur -30.8955 -1.87552 -21.6656
ltibia 53.273
lfoot -23.107 2.23973
ltoes -16.593
2004
root -0.441373 16.694 -0.867637 3.02139 15.4358 4.15798
lowerback 19.5148 6.54618 1.5236
upperback 12.1208 8.90959 -1.59547
thorax 2.83315 4.73093 -3.96715
lowerneck 7.38115 5.50357 0.201867
upperneck 0.64229 7.36452 2.16686
head -1.10429 3.6308 0.403318
rclavicle -5.88403e-014 5.80451e-014
rhumerus 17.007 14.8699 -82.5989
rradius 130.151
rwrist 19.2475
rhand 31.6115 -11.4337
rfingers 7.12502
rthumb 55.1496 -29.4636
lclavicle -5.88403e-014 5.80451e-014
lhumerus 25.369 -24.0406 83.2446
lradius 131.363
lwrist -14.9509
lhand 26.2774 42.88
lfingers 7.12502
lthumb 50.3313 63.927
rfemur -28.5207 -16.4217 16.7233
rtibia 58.5647
rfoot -28.9859 -22.9696
rtoes -11.1927
lfemur -30.9411 -2.0226 -21.7241
ltibia 53.2682
lfoot -23.0965 2.15318
ltoes -16.4349
